<svg width="1254" height="677" viewBox="0 0 1254 677" fill="none" xmlns="http://www.w3.org/2000/svg">
<g clip-path="url(#clip0_771_1037)">
<g filter="url(#filter0_f_771_1037)">
<path d="M798.5 295C992.628 295 1150 402.004 1150 534C1150 665.996 992.628 773 798.5 773C604.372 773 447 665.996 447 534C447 402.004 604.372 295 798.5 295Z" fill="#3059FF"/>
<path d="M267.5 496C627.866 496 920 553.308 920 624C920 694.692 627.866 752 267.5 752C-92.8658 752 -385 694.692 -385 624C-385 553.308 -92.8658 496 267.5 496Z" fill="#98F0FF" fill-opacity="0.9"/>
<path d="M1212 -91.7362C1450.03 -91.7362 1643 91.3793 1643 317.264C1643 543.148 1450.03 726.264 1212 726.264C973.965 726.264 781 543.148 781 317.264C781 91.3793 973.965 -91.7362 1212 -91.7362Z" fill="#98ECFF"/>
</g>
</g>
<defs>
<filter id="filter0_f_771_1037" x="-962" y="-668.736" width="3182" height="2018.74" filterUnits="userSpaceOnUse" color-interpolation-filters="sRGB">
<feFlood flood-opacity="0" result="BackgroundImageFix"/>
<feBlend mode="normal" in="SourceGraphic" in2="BackgroundImageFix" result="shape"/>
<feGaussianBlur stdDeviation="288.5" result="effect1_foregroundBlur_771_1037"/>
</filter>
<clipPath id="clip0_771_1037">
<rect width="1254" height="677" fill="white"/>
</clipPath>
</defs>
</svg>
