<svg xmlns="http://www.w3.org/2000/svg" viewBox="0 0 400 300" width="400" height="300">
  <title>Una carta con una sugerencia en un plato y una flecha verde hacia arriba</title>
  <rect width="400" height="300" rx="24" fill="#FFFFFF"/>
  <rect x="60" y="44" width="190" height="212" rx="16" fill="#F8FAFC" stroke="#E2E8F0" stroke-width="2"/>
  <rect x="76" y="62" width="44" height="44" rx="8" fill="#FFEBAB"/>
  <rect x="130" y="68" width="96" height="10" rx="5" fill="#334155"/>
  <!-- The suggestion shown on the dish -->
  <rect x="130" y="86" width="92" height="20" rx="10" fill="#DFFFEA"/>
  <circle cx="142" cy="96" r="5" fill="#50B27F"/>
  <rect x="152" y="93" width="58" height="6" rx="3" fill="#50B27F"/>
  <rect x="76" y="126" width="44" height="44" rx="8" fill="#DFFFEA"/>
  <rect x="130" y="134" width="84" height="10" rx="5" fill="#334155"/>
  <rect x="130" y="152" width="80" height="8" rx="4" fill="#CBD5E1"/>
  <rect x="76" y="190" width="44" height="44" rx="8" fill="#DEF8FF"/>
  <rect x="130" y="198" width="92" height="10" rx="5" fill="#334155"/>
  <rect x="130" y="216" width="64" height="8" rx="4" fill="#CBD5E1"/>
  <circle cx="306" cy="112" r="46" fill="#DFFFEA"/>
  <path d="M306 140V86M286 106L306 86L326 106" fill="none" stroke="#50B27F" stroke-width="10" stroke-linecap="round" stroke-linejoin="round"/>
</svg>
