<svg version="1.2" xmlns="http://www.w3.org/2000/svg" viewBox="0 0 1280 720" width="1280" height="720">
	<style>
		.s0 { fill: #6c6f93 } 
	</style>
	<path class="s0" d="m339.3 261.49c0 14.82 1.6 26.83 4.41 35.64 3.2 8.81 7.21 18.42 12.81 28.83 2 3.21 2.81 6.41 2.81 9.21 0 4.01-2.41 8.01-7.61 12.02l-25.23 16.81c-3.61 2.41-7.21 3.61-10.41 3.61-4.01 0-8.01-2-12.02-5.61-5.6-5.6-10.41-11.61-14.41-18.42-4.01-6.81-8.01-14.41-12.42-23.62q-46.85 55.26-117.73 55.26c-33.63 0-60.46-9.61-80.09-28.84-19.62-19.22-29.63-44.84-29.63-76.88 0-34.04 12.01-61.67 36.44-82.49 24.43-20.83 56.86-31.24 98.11-31.24 13.62 0 27.63 1.2 42.45 3.21 14.81 2 30.03 5.2 46.05 8.81v-29.24c0-30.43-6.41-51.65-18.82-64.07-12.82-12.41-34.44-18.42-65.27-18.42-14.02 0-28.44 1.6-43.25 5.21-14.82 3.6-29.24 8.01-43.25 13.61-6.41 2.81-11.21 4.41-14.02 5.21-2.8 0.8-4.8 1.2-6.4 1.2-5.61 0-8.41-4-8.41-12.41v-19.63c0-6.4 0.8-11.21 2.8-14.01 2-2.8 5.61-5.61 11.21-8.41q21.03-10.81 50.46-18.02c19.62-5.21 40.44-7.61 62.47-7.61 47.65 0 82.49 10.81 104.91 32.44 22.03 21.62 33.24 54.46 33.24 98.51v129.34zm-162.58 60.87c13.22 0 26.83-2.4 41.25-7.21 14.41-4.81 27.23-13.61 38.04-25.63 6.41-7.61 11.21-16.02 13.61-25.63 2.41-9.61 4.01-21.22 4.01-34.84v-16.81c-11.61-2.81-24.03-5.21-36.84-6.81-12.82-1.6-25.23-2.4-37.64-2.4-26.83 0-46.46 5.2-59.67 16.01-13.21 10.82-19.62 26.03-19.62 46.05 0 18.83 4.8 32.84 14.81 42.45 9.62 10.01 23.63 14.82 42.05 14.82zm321.56 43.65c-7.21 0-12.01-1.2-15.22-4.01-3.2-2.4-6.01-8.01-8.41-15.62l-93.7-309.54c-2.4-8.01-3.61-13.21-3.61-16.02 0-6.4 3.21-10.01 9.61-10.01h39.25c7.61 0 12.81 1.2 15.62 4.01 3.2 2.4 5.6 8.01 8 15.61l67.28 265.1 62.47-265.1c2-8.01 4.4-13.21 7.61-15.61 3.2-2.41 8.81-4.01 16.02-4.01h32.03c7.61 0 12.81 1.2 16.02 4.01 3.2 2.4 6.01 8.01 7.61 15.61l63.27 268.3 69.27-268.3c2.41-8.01 5.21-13.21 8.01-15.61 3.21-2.41 8.41-4.01 15.62-4.01h37.24c6.41 0 10.01 3.21 10.01 10.01 0 2.01-0.4 4.01-0.8 6.41-0.4 2.4-1.2 5.61-2.8 10.01l-96.51 309.55q-3.6 12.01-8.41 15.61c-3.2 2.41-8.41 4.01-15.21 4.01h-34.44c-7.61 0-12.82-1.2-16.02-4.01-3.2-2.8-6.01-8.01-7.61-16.02l-62.47-257.88-61.67 257.88c-2 8.01-4.4 13.22-7.61 16.02-3.2 2.81-8.81 4.01-16.01 4.01h-34.44zm514.57 10.41c-20.82 0-41.65-2.4-61.67-7.21-20.02-4.8-35.64-10.01-46.05-16.02-6.41-3.6-10.81-7.61-12.41-11.21-1.6-3.6-2.41-7.61-2.41-11.21v-20.02c0-8.41 3.21-12.42 9.21-12.42q3.61 0 7.21 1.2c2.41 0.8 6.01 2.41 10.01 4.01 13.62 6 28.44 10.81 44.05 14.01 16.02 3.21 31.64 4.81 47.66 4.81 25.22 0 44.85-4.41 58.46-13.22 13.62-8.81 20.82-21.62 20.82-38.04 0-11.21-3.6-20.42-10.81-28.03-7.21-7.61-20.82-14.42-40.44-20.82l-58.07-18.02c-29.23-9.21-50.85-22.83-64.07-40.85-13.21-17.62-20.02-37.24-20.02-58.06q0-25.23 10.81-44.45c7.21-12.82 16.82-24.03 28.83-32.84 12.02-9.21 25.63-16.02 41.65-20.82q24.03-7.21 50.45-7.21c8.81 0 18.03 0.4 26.83 1.6 9.22 1.2 17.62 2.81 26.03 4.41 8.01 2 15.62 4 22.83 6.4q10.81 3.61 16.82 7.21c5.6 3.21 9.61 6.41 12.01 10.01q3.61 4.81 3.61 13.22v18.82c0 8.41-3.21 12.81-9.22 12.81-3.2 0-8.4-1.6-15.21-4.8q-34.24-15.62-76.89-15.62c-22.82 0-40.84 3.6-53.26 11.21-12.41 7.61-18.82 19.22-18.82 35.64 0 11.22 4.01 20.83 12.02 28.43 8 7.61 22.82 15.22 44.04 22.03l56.87 18.02c28.83 9.21 49.65 22.02 62.07 38.44 12.41 16.42 18.42 35.24 18.42 56.06 0 17.22-3.61 32.84-10.41 46.46-7.21 13.61-16.82 25.62-29.24 35.23-12.41 10.02-27.23 17.22-44.45 22.43-18.02 6.01-36.84 8.41-57.26 8.41z"/>
	<path fill-rule="evenodd" class="s0" d="m1088.54 571.03c-131.75 97.31-323.16 148.97-487.75 148.97-230.65 0-438.48-85.29-595.46-227.05-12.41-11.21-1.2-26.43 13.62-17.62 169.79 98.51 379.22 158.17 595.86 158.17 146.16 0 306.74-30.43 454.5-92.9 22.43-9.61 40.85 14.42 19.23 30.43z"/>
	<path fill-rule="evenodd" class="s0" d="m1143.4 508.57c-16.82-21.63-111.33-10.42-154.18-5.21-12.81 1.6-14.81-9.61-3.2-18.02 75.29-52.86 199.02-37.64 213.44-20.02 14.41 18.02-4.01 141.75-74.48 201.02-10.82 9.21-21.23 4.41-16.42-7.61 16.02-39.64 51.65-128.54 34.84-150.16z"/>
</svg>