<svg version="1.2" xmlns="http://www.w3.org/2000/svg" viewBox="0 0 600 105" width="600" height="105">
	<style>
		.s0 { fill: #6c6f93 } 
	</style>
	<g id="svgg">
		<path id="path0" fill-rule="evenodd" class="s0" d="m301.98 17.87c1.16 3.05 4.3 10.22 6.99 15.93 2.69 5.71 4.89 10.61 4.89 10.87 0 0.27 2.1 4.93 4.68 10.36 6.82 14.42 6.8 14.3 2.46 14.31-4.05 0.01-2.36 2.93-15.3-26.38-3.21-7.26-6.62-14.87-7.6-16.93l-1.77-3.72-3.02 6.91c-1.67 3.8-5.27 11.9-8.02 18.01-2.74 6.11-6.04 13.61-7.33 16.66-2.17 5.14-2.61 5.56-5.91 5.57-4.17 0.01-4.2-0.11-1.56-5.74 1.1-2.37 3.27-7.16 4.83-10.65 1.55-3.49 4.01-8.97 5.47-12.17 5.62-12.32 9.76-22.06 9.76-22.94 0-0.5 0.73-1.97 1.63-3.27 3.19-4.57 7.39-3.21 9.8 3.18zm-301.98 16.32l6.34-0.02 0.12 50.73 30.79-0.08-0.33 2.91-0.33 2.9-18.22 0.34-18.23 0.33zm87.17 4.28c2.07 5.15 15.05 33.99 19.71 43.82 3.93 8.28 3.92 8.7-0.28 8.68-3.66-0.02-5.21-2.72-15.67-27.41-1.6-3.78-4.21-9.65-5.79-13.06l-2.87-6.19-3.41 7.79c-17.9 40.93-16.88 39-20.6 39.01-4.17 0.01-4.08-1.25 0.81-11.33 2.2-4.52 5.23-11.32 6.73-15.11 1.51-3.78 4.85-11.39 7.42-16.92 2.57-5.53 4.97-10.88 5.32-11.9 1.37-3.95 6.63-2.35 8.63 2.62zm47.03-4.61l2.9 0.05c3.01 0.04 2.7-0.31 17.83 20.24 20.08 27.29 18.48 27.32 18.41-0.39l-0.05-19.99 5.29-0.01 0.14 57.06h-2.92c-1.88 0.01-3.44-0.83-4.4-2.36-0.81-1.31-6.07-8.55-11.69-16.09-5.61-7.54-12.34-16.61-14.94-20.15l-4.73-6.44 0.75 45.13-6.45 0.01zm71.85-0.17l45.44-0.11-0.03 2.38c-0.01 1.46-6.86 10.98-17.9 24.85-9.83 12.36-17.88 22.72-17.88 23.03 0 0.3 8.09 0.53 17.97 0.5l17.96-0.04 0.01 6.34-46.49 0.11-0.01-2.74c0-2.68 2.37-6.77 7.02-12.07 1.28-1.45 8.19-10.03 15.36-19.05l13.04-16.41-34.48-0.5zm141.6-0.53l17.17 0.32c26.18 0.47 36.03 8.17 36.19 28.28 0.16 20.77-10.34 28.54-38.66 28.61l-14.56 0.03zm77.13 0l38.18-0.1-0.32 2.91-0.33 2.91-15.06 0.33-15.05 0.33 0.04 16.85 24.3-0.06 0.02 6.34-24.31 0.06 0.06 21.07 15.58 0.26 15.59 0.25 0.01 5.29-38.57 0.67zm64.46-0.38l12.95 0.34c18.62 0.49 24.05 4.32 24.08 17.01 0.02 8-1.51 11.58-6.21 14.57l-4.05 2.57 3.75 5.81c4.79 7.41 9.77 15.78 9.77 16.4 0 0.26-1.59 0.49-3.53 0.49-4.21 0.01-5.07-0.9-11.74-12.39l-5.06-8.7-13.53 0.03 0.05 21.13-6.34 0.02zm106.69 37.47c0.51 1.16 2.65 5.79 4.77 10.29 4.68 9.95 4.68 9.43 0.13 9.04-3.72-0.31-3.76-0.37-10.65-15.62-3.8-8.42-8.55-18.83-10.55-23.14l-3.64-7.84-2.14 5.04c-1.18 2.76-2.14 5.22-2.14 5.45 0 0.22-1.7 4.11-3.79 8.63-2.08 4.53-4.49 9.89-5.34 11.93-6.4 15.24-6.82 15.86-10.6 15.87-4.03 0.01-4.03-0.82-0.06-8.98 2.52-5.16 13.53-29.94 18-40.51 5.91-13.96 8.06-11.5 26.01 29.84zm-230.27-30.61l-11.66 0.03 0.11 44.38 11.36-0.04c16.95-0.06 25.04-4.64 28.74-16.28 3.08-9.69-3.39-22.52-13.46-26.69-2.19-0.91-7.67-1.42-15.09-1.4zm139-0.18l-9.06-0.36 0.05 23.47 7.45-0.02c15.02-0.04 22.09-9.99 13.72-19.3-2.96-3.31-3.45-3.46-12.16-3.79z"/>
	</g>
</svg>